<?xml version="1.0" encoding="utf-8"?>
<!-- Generator: Adobe Illustrator 19.0.0, SVG Export Plug-In . SVG Version: 6.00 Build 0)  -->
<svg version="1.1" id="Layer_1" xmlns="http://www.w3.org/2000/svg" xmlns:xlink="http://www.w3.org/1999/xlink" x="0px" y="0px"
	 viewBox="-270 362 70 70" style="enable-background:new -270 362 70 70;" xml:space="preserve">
<style type="text/css">
	.st0{fill:#D71920;}
	.st1{fill:#FFFFFF;}
</style>
<rect x="-270" y="362" class="st0" width="70" height="70"/>
<g>
	<g>
		<path class="st1" d="M-230.8,375.2c-0.1,0.1-2.2,2-2.4,2.2c-0.2,0.2-0.7,1-0.7,2c0,0.2,0,6.1,0,6.3c0,0.4-0.3,1.1-0.5,1.3
			c-0.2,0.2-1.1,1-1.2,1.1l0.6,0c0.2-0.2,2.1-1.8,2.3-2.1c0.3-0.3,0.9-1,0.9-2.2c0-0.3,0-5.8,0-6.1c0-0.9,0.4-1.4,0.6-1.7
			c0.2-0.3,1-0.9,1.1-1L-230.8,375.2z"/>
		<path class="st1" d="M-230.4,391.5v2.5c0,0,0.7,0.8,0.9,0.9c0.7,0.7,0.7,2-1.5,4.2c-0.4,0.4-1.5,1.4-2.9,1.4h-3.9l2.3,2h1.5
			c1.6,0,3-0.7,3.9-1.6c0.9-0.9,1.3-2.2,1.3-3.4v-3.3c0-1.1-0.7-1.8-0.9-1.9C-229.7,392.1-230.4,391.5-230.4,391.5"/>
		<path class="st1" d="M-245.5,383.2h-0.8c0.5,0.3,0.9,1.1,0.9,1.6c0,0.4,0,2.9,0,3.1c0,0.8,0.6,3.9,3.4,3.9h8.1c0,0,0,5,0,5.2
			c0,0.8-0.3,1.3-0.5,1.6c-0.2,0.2-1.2,1.2-1.2,1.2l0.6,0c0.2-0.2,2-1.8,2.2-2c0.4-0.5,0.9-1,0.9-2.6v-3.3c0,0,0.7-0.8,0.9-0.9
			c0.2-0.2,1.6-1.5,1.6-1.5c0,1.3,0.6,1.8,1.2,1.8c0.3,0,0.6-0.1,0.8-0.4c0.3-0.3,1.2-1.2,1.5-1.4c0.7-0.6,1-2.7-0.6-2.7
			c0,0,0,0,0,0c-1,0-2.1,1.4-2.2,1.6c-0.4-0.2-0.7-0.7-0.7-0.7v1.2c-0.1,0.2-0.8,0.7-1.3,0.7h-1.3v-1.2c0-0.6,0.2-1.2,0.5-1.5
			c0.2-0.2,1.2-1.1,1.2-1.2l-0.6,0c-0.2,0.2-2.2,2-2.4,2.2c-0.4,0.5-0.7,1.4-0.7,1.7c0,0-8.9,0-9.1,0c-1.1,0-1.9-1.1-1.9-2.1
			c0-0.1,0-2.3,0-2.3C-244.9,383.4-245.4,383.2-245.5,383.2 M-227,390c-0.2,0-0.4-0.1-0.7-0.3c-0.3-0.2-0.8-0.9-0.8-0.9
			c0.2-0.2,0.6-0.3,0.9-0.3c0.3,0,0.5,0.1,0.7,0.2C-226.4,389.4-226.5,390-227,390"/>
		<path class="st1" d="M-239.7,392.8l-1.5,1.5c1.1,1.1,1.4,1.6,1.5,2.1c0.1-0.1,1.5-1.3,1.5-1.7
			C-238.2,394.1-238.7,393.9-239.7,392.8"/>
		<path class="st1" d="M-236.4,375.2c0,0-0.3,0.3-1.1,1c-0.4,0.4-0.3,1.3,0.6,2.2c0,0,0,1.6,0,2.2c0,0.2-0.2,0.4-0.2,0.4
			s-1.3-1.1-2.4-1.1h-1.7c-1.1,0-2,1-2.1,1.1c-0.6,0.6-0.6,1.6-0.1,2.1c0.2,0.2,1.2,1.2,1.2,1.2s-0.3-1.9,0-3.2
			c0.1-0.3,0.4-0.6,0.8-0.6c0.1,0,0.3,0,0.4,0.1c1,0.6,2.4,2,2.4,2s-3.1,3.3-3.2,3.4c-0.1,0.1-0.6,0.5-1,0.5c0,0,0,0,0,0
			c-0.5,0-0.7-0.3-1-0.5c0,0,0,1.5,0,1.6c0,0.5,0.7,1.1,1.4,1.1h4.3c0.3,0,0.6-0.1,0.9-0.4c0.2-0.2,1.3-1.3,1.4-1.4
			c0.2-0.2,0.3-0.5,0.3-0.8c0-0.2,0-0.9,0-1.6c0-1.6-1.2-2.8-1.2-2.8s0.3-0.2,0.3-0.9c0-0.2,0-1.7,0-1.7s0.5,0.5,0.5,0.7
			c0,0,0.5-0.6,0.9-0.9c0.4-0.4-0.3-1.2-0.6-1.5C-236.5,376.1-236.4,375.2-236.4,375.2 M-241.8,386.4c0.4-0.2,0.5-0.3,0.9-0.8
			c0.1-0.1,2.7-2.8,2.7-2.8s1.5,1.6,2,2.4c0.2,0.4,0.5,1.2-0.8,1.2H-241.8"/>
		<path class="st1" d="M-246.4,390h-0.8c0,0,0.9,0.5,0.9,1.7v3.9c0,2.5,2.1,4.8,4.6,4.8h2.1c1.3,0,1.7-0.3,2.5-1
			c0.3-0.2,0.6-0.7,0.8-0.8c0.4-0.5,0.9-0.9,0.9-2.2v-1.3c0-1.1-0.6-1.5-0.9-1.8c-0.2-0.2-0.7-0.7-0.7-0.7v2.6c0,0,0.5,0.6,0.8,0.7
			c1.1,0.9,0.2,2.4-0.8,2.4c-0.2,0-4.3,0-4.6,0c0,0,0,0-0.1,0c-1.7,0-3.9-1.5-3.9-4v-2.1C-245.8,390-246.4,390-246.4,390"/>
		<path class="st1" d="M-242.8,392.8l-1.5,1.5c1.1,1.1,1.4,1.6,1.5,2.1c0.1-0.1,1.5-1.3,1.5-1.7
			C-241.4,394.1-241.8,393.9-242.8,392.8"/>
		<path class="st1" d="M-258.7,402.5h-5.3c0,0,0.9,0.8,0.9,2.4l0,6.4c0,1.6,0.7,1.7,0.7,1.7h5.2c1.2,0,1.6-0.8,1.6-1.3l0-0.6
			c0,0-0.4,0.8-1.9,0.8c-0.3,0-2.2,0-2.5,0c-0.8,0-0.8-0.7-0.8-1.2v-3.5c0,0,1.6,0,1.8,0c0.5,0,1.1,0,1.7,0.4c0,0-0.6-1.4-2.4-1.4
			h-1.1v-0.7v-0.4c0,0,0-1-0.2-1.3c0,0,1.5,0,1.6,0c1.4,0,2.5,0,3.6,0.7C-255.7,404.4-256,402.5-258.7,402.5"/>
		<path class="st1" d="M-250.4,404.6c-1.7,0-2.1,1.6-2.1,1.6s0-1.6-1.4-1.6l-1.3,0c0,0,0.8,0.3,0.8,1.7l0,5c0,1.7,0.7,1.7,0.7,1.7
			h2.2c-0.1,0-0.8-0.6-0.8-1.7v-4.4c0-0.2,0.4-0.9,1.3-0.9c0.5,0,1.1,0.6,1.1,1.2l0,4.1c0,1.7,0.7,1.7,0.7,1.7h2.2
			c0,0-0.8-0.6-0.8-1.7l0-4.4c0.1-0.2,0.4-0.9,1.2-0.9c0.7,0,1.2,0.6,1.2,1.2c0,0,0,3.8,0,4.1c0,1.7,0.6,1.7,0.7,1.7h0
			c1.2,0,2.2,0,2.2,0s-0.8-0.6-0.8-1.7v-4.5c0-1.8-1.4-2.2-2.5-2.2c-1.4,0-1.8,1.2-2,1.6C-248.4,405.1-249.5,404.6-250.4,404.6"/>
		<path class="st1" d="M-241.1,404.6h-1.3c0,0,0.8,0.3,0.8,1.7l0,5v0c0,1.7,0.7,1.7,0.7,1.7l0,0c1.2,0,2.2,0,2.2,0s-0.9-0.6-0.9-1.7
			l0,0l0-4.8C-239.7,404.6-240.7,404.6-241.1,404.6"/>
		<path class="st1" d="M-237.2,404.6l-1.3,0c0,0,0.8,0.3,0.8,1.7l0,5c0,1.7,0.7,1.7,0.7,1.7h2.2c-0.1,0-0.8-0.6-0.8-1.7l0-4.1
			c0.1-0.4,0.2-0.7,0.5-0.8c0.3-0.2,0.6-0.3,1-0.3c0.5,0,1,0.2,1.3,0.6v-1.4c0,0-0.2-0.6-1.1-0.6c-1.4,0-1.7,1.6-1.7,1.6
			C-235.8,405-236.2,404.6-237.2,404.6"/>
		<path class="st1" d="M-223.1,402.7c0,0-0.5,0.8-1.5,1.7c-0.6,0.5-1.9,1.2-1.9,1.2l1.4,0l0,5.8c0,1.6,0.7,1.6,0.7,1.6
			c1.2,0,2.2,0,2.2,0s-0.9-0.6-0.9-1.6l0-5.8c0.6,0,0.2,0,0.5,0c0.7,0,1.3,0.3,1.3,0.3l0-1.3h-1.9L-223.1,402.7L-223.1,402.7z"/>
		<path class="st1" d="M-217.6,404.6L-217.6,404.6c-2.3,0-3.5,2.1-3.5,4.4c0,2.3,1.5,4,3.7,4c1.8,0,2.4-0.7,2.4-0.7l0-1.3
			c-0.5,0.9-1.1,1.1-1.7,1.1c-0.4,0-0.8-0.1-0.9-0.2c-1-0.5-1.1-1.7-1.1-1.7c0.8-0.9,1.8-0.7,3-2
			C-214.2,406.4-215.4,404.6-217.6,404.6 M-219,409.2c0,0-0.3-3.9,1.2-4c0,0,0.1,0,0.1,0c1.1,0,0.9,1.6,0.5,2.3
			C-217.8,408.6-218.5,408.7-219,409.2"/>
		<path class="st1" d="M-240.7,401.9c-0.6,0-1,0.5-1,1s0.5,1,1,1c0.6,0,1-0.5,1-1S-240.1,401.9-240.7,401.9"/>
		<path class="st1" d="M-229.8,404.6c-1.3,0-2.1,0.6-2.1,0.6v1.5c0,0,0.5-1.2,1.6-1.2c1.1,0,1.2,0.6,1.2,0.8c0,0,0.1,0.4-0.2,0.9
			c-0.5,0.9-4.5,1.1-3.9,4.2c0.2,1.2,1.1,1.6,2.1,1.6c1,0,1.6-0.5,1.8-1c0.1,0.9,0.6,1,0.6,1c1.2,0,2.2,0,2.2,0s-0.9-0.6-0.9-1.7
			v-4.7C-227.2,405.5-228.5,404.6-229.8,404.6 M-230.6,412c-0.5,0-0.9-0.5-0.9-1.1c0-2.1,1.7-2.4,2.2-2.9l0,3.5
			C-229.5,411.7-229.7,412-230.6,412"/>
		<path class="st1" d="M-211.7,404.6c-1.3,0-2.5,0.9-2.5,2c0,1,0.4,1.6,1.2,2.2c0.3,0.2,0.7,0.5,1.1,0.7c0.6,0.4,0.9,0.8,0.9,1.2
			c0,0.6-0.5,1.4-1.6,1.4c-1.1,0-1.6-1.2-1.6-1.2v1.5c0,0,0.8,0.6,2.1,0.6c1.5,0,3-1.1,3-2.7c0-0.6-0.2-1-0.5-1.5
			c-0.5-0.7-1.4-1.2-2.2-1.6c-0.4-0.3-0.6-0.7-0.6-0.9c0-0.3,0.1-0.8,1.2-0.8c1.1,0,1.6,1.2,1.6,1.2l0-1.4
			C-209.6,405.2-210.4,404.6-211.7,404.6"/>
	</g>
	<path class="st1" d="M-207.3,403.5c0.1-0.1,0.1-0.2,0.1-0.3c0-0.3-0.1-0.4-0.4-0.4h-0.2v0.8h0.2
		C-207.4,403.6-207.4,403.6-207.3,403.5 M-206.6,404.7h-0.4l-0.2-0.5c-0.2-0.3-0.3-0.4-0.4-0.4h0v0.9h-0.4l0-2.1h0.6
		c0.5,0,0.8,0.2,0.8,0.6c0,0.2-0.1,0.3-0.2,0.4c-0.1,0.1-0.2,0.1-0.3,0.1c0.1,0.1,0.2,0.2,0.3,0.4L-206.6,404.7z M-206.5,402.6
		c-0.3-0.3-0.6-0.4-1-0.4c-0.4,0-0.7,0.1-1,0.4c-0.3,0.3-0.4,0.6-0.4,1c0,0.4,0.1,0.7,0.4,1c0.3,0.3,0.6,0.4,1,0.4
		c0.4,0,0.7-0.1,1-0.4c0.3-0.3,0.4-0.6,0.4-1C-206.1,403.3-206.2,402.9-206.5,402.6 M-206.2,404.8c-0.4,0.3-0.8,0.5-1.2,0.5
		c-0.5,0-0.9-0.2-1.2-0.5c-0.4-0.3-0.5-0.7-0.5-1.2c0-0.5,0.2-0.8,0.5-1.2c0.3-0.3,0.8-0.5,1.2-0.5c0.5,0,0.9,0.2,1.2,0.5
		c0.4,0.3,0.5,0.7,0.5,1.2C-205.7,404.1-205.9,404.5-206.2,404.8"/>
</g>
</svg>
